# xmcd
#
# Track frame offsets:
#	150
#	7346
#	24667
#	33889
#	43973
#	64370
#	75767
#	85288
#	103435
#	111307
#	122254
#	139126
#	151947
#	165070
#
# Disc length: 2279 seconds
# Revision: 0
# Processed by: cddbd v1.5.2PL0 Copyright (c) Steve Scherf et al.
# Submitted via: dBpowerAMP V12.0
#
DISCID=ae08e50e
DTITLE=Eilen Jewell - Queen of the Minor Key
DYEAR=2011
DGENRE=Country
TTITLE0=Radio City
TTITLE1=I Remember You
TTITLE2=Queen of the Minor Key
TTITLE3=That's Where I'm Going
TTITLE4=Santa Fe
TTITLE5=Warning Signs
TTITLE6=Reckless
TTITLE7=Over Again
TTITLE8=Bang Bang Bang
TTITLE9=Hooked
TTITLE10=Only One
TTITLE11=Long Road
TTITLE12=Home to Me
TTITLE13=Kalimotxo
EXTD=
EXTT0=
EXTT1=
EXTT2=
EXTT3=
EXTT4=
EXTT5=
EXTT6=
EXTT7=
EXTT8=
EXTT9=
EXTT10=
EXTT11=
EXTT12=
EXTT13=
PLAYORDER=
